 <svg  version="1.0" xmlns="http://www.w3.org/2000/svg"  width="300.000000pt" height="200.000000pt" viewBox="0 0 300.000000 200.000000"  preserveAspectRatio="xMidYMid meet">  <g transform="translate(0.000000,200.000000) scale(0.100000,-0.100000)" fill="#050505" stroke="none"> <path d="M625 1177 c-53 -21 -83 -48 -105 -91 -11 -23 -20 -48 -20 -54 0 -29 110 -3 153 36 23 20 57 85 57 107 0 18 -41 19 -85 2z"/> <path d="M1030 1138 c-5 -13 -34 -83 -64 -155 l-54 -133 25 0 c14 0 41 13 59 30 19 16 53 39 76 51 46 23 50 21 70 -43 9 -32 15 -38 40 -38 15 0 28 2 28 5 0 2 -9 27 -20 55 -23 58 -20 70 16 70 23 0 24 -3 24 -65 l0 -65 81 0 c76 0 82 2 110 29 35 36 38 77 8 115 -16 20 -19 30 -10 39 20 20 13 76 -14 102 -21 22 -33 25 -100 25 l-75 0 0 -65 0 -64 -37 -7 c-21 -4 -40 -8 -42 -8 -2 -1 -16 31 -31 69 -23 59 -32 70 -54 73 -19 3 -28 -3 -36 -20z m338 -40 c34 -34 1 -72 -52 -62 -33 6 -36 9 -36 40 0 33 1 34 38 34 21 0 43 -5 50 -12z m-274 -84 c5 -17 -3 -26 -44 -52 -27 -17 -50 -29 -50 -27 0 4 24 66 52 135 l10 25 13 -30 c7 -16 15 -39 19 -51z m269 -35 c61 -33 38 -79 -39 -79 l-44 0 0 45 c0 44 1 45 31 45 17 0 40 -5 52 -11z"/> <path d="M1480 1005 l0 -155 30 0 30 0 0 155 0 155 -30 0 -30 0 0 -155z"/> <path d="M1820 1005 l0 -155 81 0 c76 0 82 2 110 29 36 36 39 84 7 118 -17 18 -19 26 -10 35 7 7 12 29 12 49 0 58 -34 79 -126 79 l-74 0 0 -155z m145 70 c0 -29 -2 -30 -47 -33 l-48 -3 0 36 0 36 48 -3 c45 -3 47 -4 47 -33z m6 -104 c21 -16 22 -22 11 -45 -10 -23 -17 -26 -62 -26 l-50 0 0 38 c0 21 3 42 7 45 13 14 72 6 94 -12z"/> <path d="M762 1114 c-72 -57 -98 -175 -56 -256 l19 -38 42 21 c71 35 110 120 92 200 -9 41 -43 99 -57 99 -4 0 -22 -12 -40 -26z"/> <path d="M1658 1066 c-16 -8 -28 -11 -28 -5 0 5 -11 9 -25 9 l-25 0 0 -110 0 -110 25 0 c24 0 25 2 25 68 0 73 17 112 50 112 37 0 50 -27 50 -106 0 -72 1 -74 25 -74 25 0 25 1 25 80 0 89 -11 123 -47 139 -31 14 -42 14 -75 -3z"/> <path d="M2135 1071 c-45 -20 -70 -60 -70 -113 0 -43 4 -53 33 -79 26 -23 42 -29 78 -29 38 0 51 5 77 33 l32 32 -28 3 c-15 2 -34 -4 -43 -12 -22 -23 -60 -20 -86 7 l-23 22 88 3 c99 3 107 9 83 65 -23 55 -92 89 -141 68z m79 -57 c27 -27 18 -34 -44 -34 -57 0 -60 1 -50 19 17 33 68 41 94 15z"/> <path d="M2325 963 c37 -92 47 -108 67 -111 22 -3 28 6 61 90 20 51 39 101 43 111 6 16 2 18 -21 15 -24 -3 -31 -12 -55 -77 l-27 -74 -28 76 c-25 71 -30 77 -56 77 l-27 0 43 -107z"/> <path d="M507 942 c8 -33 65 -94 101 -109 43 -18 50 -11 29 31 -18 39 -69 81 -109 91 -23 6 -26 4 -21 -13z"/> </g> </svg> 