 <svg  version="1.0" xmlns="http://www.w3.org/2000/svg"  width="300.000000pt" height="114.000000pt" viewBox="0 0 300.000000 114.000000"  preserveAspectRatio="xMidYMid meet">  <g transform="translate(0.000000,114.000000) scale(0.100000,-0.100000)" fill="#0165ab" stroke="none"> <path d="M427 1013 c-70 -48 -125 -88 -122 -91 2 -3 28 6 57 18 42 19 76 24 170 28 l117 4 -39 62 c-21 33 -42 61 -47 63 -4 1 -65 -37 -136 -84z"/> <path d="M403 925 c-137 -42 -251 -172 -269 -308 l-7 -47 191 0 c116 0 193 4 197 10 4 6 95 10 241 10 130 0 234 4 232 9 -1 4 -52 83 -113 175 l-109 166 -161 -1 c-102 0 -175 -5 -202 -14z"/> <path d="M1143 874 c-23 -5 -23 -8 -23 -145 l0 -139 68 0 c44 0 79 6 102 18 30 15 35 23 38 57 3 33 -1 43 -24 61 -27 22 -27 22 -5 33 27 15 29 71 3 94 -19 17 -117 30 -159 21z m98 -44 c23 -13 25 -55 3 -64 -9 -3 -27 -6 -40 -6 -21 0 -24 5 -24 33 0 48 18 59 61 37z m10 -120 c21 -12 25 -50 7 -68 -7 -7 -27 -12 -45 -12 -32 0 -33 2 -33 38 0 21 3 42 7 45 10 10 42 8 64 -3z"/> <path d="M1393 790 c-38 -16 -18 -36 35 -36 35 1 47 -3 47 -14 0 -9 -11 -16 -25 -18 -45 -5 -82 -25 -91 -49 -10 -28 3 -68 26 -77 26 -10 70 -7 82 5 8 8 13 8 17 0 4 -6 18 -11 32 -11 23 0 24 2 24 70 0 38 -5 80 -11 93 -19 42 -82 59 -136 37z m85 -127 c-2 -22 -9 -29 -29 -31 -17 -2 -29 3 -32 12 -8 19 18 46 44 46 16 0 20 -6 17 -27z"/> <path d="M1658 784 c-16 -8 -28 -10 -28 -4 0 5 -11 10 -25 10 -25 0 -25 0 -25 -100 l0 -100 30 0 30 0 0 64 c0 80 6 96 36 96 32 0 44 -27 44 -99 0 -58 1 -61 25 -61 25 0 25 1 25 85 0 72 -3 88 -20 105 -24 24 -54 25 -92 4z"/> <path d="M1858 784 c-36 -19 -48 -43 -48 -97 0 -68 23 -89 99 -95 57 -4 63 -3 59 14 -2 13 -13 20 -33 22 -42 5 -65 29 -65 67 0 39 20 58 60 58 28 0 46 19 34 38 -8 14 -76 10 -106 -7z"/> <path d="M2031 786 c-58 -32 -69 -119 -22 -167 24 -24 38 -29 76 -29 83 0 127 71 95 154 -18 48 -98 70 -149 42z m81 -43 c36 -32 17 -113 -27 -113 -43 0 -62 75 -28 112 20 22 31 23 55 1z"/> <path d="M530 555 c-10 -12 -54 -15 -245 -17 l-233 -3 117 -173 116 -174 165 4 c139 4 174 8 220 26 118 46 225 181 237 297 l6 55 -185 0 c-152 0 -188 -3 -198 -15z"/> <path d="M1186 520 c-42 -13 -66 -39 -66 -72 0 -44 14 -62 69 -87 54 -26 68 -45 49 -68 -9 -12 -26 -14 -64 -10 -48 5 -52 4 -56 -18 -4 -18 0 -25 16 -29 42 -11 102 -5 132 13 65 39 51 111 -29 149 -77 37 -74 77 6 77 36 0 42 3 45 23 2 16 -2 22 -15 22 -10 0 -27 2 -38 5 -11 2 -33 0 -49 -5z"/> <path d="M2323 520 c-127 -30 -164 -170 -69 -259 20 -19 40 -26 84 -28 64 -4 87 5 78 33 -5 16 -14 19 -49 16 -80 -7 -126 62 -94 140 16 39 62 62 114 56 23 -2 29 1 31 20 3 16 -2 22 -16 22 -11 0 -26 2 -34 4 -7 2 -28 0 -45 -4z"/> <path d="M1807 483 c-4 -3 -7 -15 -7 -25 0 -10 -7 -18 -15 -18 -8 0 -15 -9 -15 -20 0 -11 7 -20 15 -20 12 0 15 -14 15 -65 0 -75 20 -105 70 -105 25 0 30 4 30 25 0 15 -6 25 -15 25 -21 0 -37 36 -33 78 2 30 7 38 26 40 14 2 22 10 22 22 0 12 -8 20 -22 22 -15 2 -24 11 -26 26 -3 21 -30 30 -45 15z"/> <path d="M1357 433 c-4 -3 -7 -14 -7 -24 0 -16 4 -17 27 -8 33 12 73 4 73 -15 0 -8 -16 -17 -37 -21 -71 -13 -101 -64 -67 -113 17 -25 71 -30 93 -9 11 10 14 10 18 0 3 -7 16 -13 29 -13 23 0 24 2 24 85 0 107 -13 125 -93 125 -30 0 -57 -3 -60 -7z m93 -127 c0 -25 -30 -43 -50 -31 -14 9 -12 42 3 48 30 13 47 7 47 -17z"/> <path d="M1552 338 l3 -103 28 -3 27 -3 0 70 c0 50 4 74 16 85 39 40 64 6 64 -88 l0 -66 30 0 30 0 0 76 c0 72 -10 111 -34 126 -17 11 -65 9 -89 -3 -16 -9 -22 -9 -25 0 -2 6 -15 11 -28 11 l-25 0 3 -102z"/> <path d="M1944 434 c-7 -3 -10 -13 -7 -24 4 -15 9 -17 33 -8 20 6 35 6 49 -2 31 -16 26 -27 -16 -35 -59 -10 -83 -30 -83 -69 0 -55 50 -83 102 -55 14 8 23 8 31 0 6 -6 19 -11 29 -11 16 0 18 10 18 79 0 64 -4 83 -21 105 -18 22 -28 26 -72 25 -29 0 -57 -3 -63 -5z m96 -128 c0 -16 -7 -27 -20 -31 -25 -8 -40 1 -40 24 0 24 9 31 37 31 18 0 23 -6 23 -24z"/> <path d="M2450 335 l0 -105 30 0 30 0 0 71 c0 69 1 71 30 82 21 8 30 18 30 34 0 27 -37 33 -46 8 -4 -8 -10 -15 -15 -15 -5 0 -9 7 -9 15 0 9 -9 15 -25 15 l-25 0 0 -105z"/> <path d="M2600 355 c0 -72 3 -88 20 -105 25 -25 67 -26 93 -3 18 17 19 17 28 0 6 -9 19 -17 29 -17 19 0 20 8 20 105 l0 105 -30 0 -30 0 0 -64 c0 -80 -6 -96 -36 -96 -31 0 -44 32 -44 106 0 51 -1 54 -25 54 -25 0 -25 -1 -25 -85z"/> <path d="M2820 421 c0 -20 26 -31 65 -26 14 1 25 -1 25 -4 0 -3 -23 -35 -51 -70 -27 -35 -48 -69 -46 -75 2 -7 39 -12 90 -14 87 -3 87 -3 87 22 0 23 -4 25 -49 28 l-50 3 50 60 c71 87 68 95 -36 95 -77 0 -85 -2 -85 -19z"/> <path d="M660 184 c-51 -18 -86 -23 -162 -24 -54 0 -98 -3 -98 -7 0 -9 74 -123 80 -123 3 0 66 41 140 90 74 49 128 89 120 89 -8 -1 -44 -12 -80 -25z"/> </g> </svg> 