 <svg  version="1.0" xmlns="http://www.w3.org/2000/svg"  width="242.000000pt" height="208.000000pt" viewBox="0 0 242.000000 208.000000"  preserveAspectRatio="xMidYMid meet">  <g transform="translate(0.000000,208.000000) scale(0.100000,-0.100000)" fill="#ffffff" stroke="none"> <path d="M1116 1852 c-2 -4 -34 -160 -71 -347 -36 -187 -69 -350 -72 -362 l-5 -23 241 0 c133 0 241 3 241 7 0 4 -32 170 -71 370 l-71 363 -94 0 c-51 0 -95 -4 -98 -8z m152 -259 c47 -29 51 -96 10 -140 -21 -22 -21 -24 -4 -105 9 -46 16 -89 16 -95 0 -9 -23 -13 -80 -13 -44 0 -80 3 -79 8 0 4 8 47 18 96 l17 89 -23 23 c-16 16 -23 35 -23 59 0 48 15 74 53 90 34 15 58 12 95 -12z"/> <path d="M1423 1686 c28 -146 30 -152 69 -194 87 -95 120 -242 84 -375 -78 -285 -444 -371 -645 -152 -71 78 -95 145 -95 265 0 86 3 101 31 161 17 37 47 85 67 107 34 38 39 51 65 184 16 79 25 144 21 146 -4 1 -31 -7 -60 -18 -176 -69 -333 -252 -376 -438 -22 -91 -14 -262 15 -353 56 -175 217 -332 401 -390 91 -29 252 -36 350 -15 231 49 427 233 485 456 24 92 16 290 -15 377 -58 166 -208 317 -368 371 l-58 19 29 -151z"/> <path d="M1435 403 c-3 -21 -9 -48 -12 -60 -5 -21 -1 -23 32 -23 33 0 37 2 32 23 -3 12 -9 39 -12 60 -4 20 -13 37 -20 37 -7 0 -16 -17 -20 -37z m33 -33 c-1 -16 -6 -30 -13 -30 -7 0 -12 14 -13 30 0 19 4 30 13 30 9 0 13 -11 13 -30z"/> <path d="M1640 423 c-48 -25 -66 -64 -51 -114 18 -59 77 -84 136 -57 38 17 24 33 -30 33 -42 0 -51 4 -64 27 -12 21 -13 31 -3 52 13 29 57 44 83 28 13 -9 20 -8 30 4 10 13 10 17 -2 25 -8 5 -19 9 -26 9 -6 0 -17 2 -25 5 -7 3 -29 -3 -48 -12z"/> <path d="M100 415 c0 -9 9 -15 25 -15 25 0 25 -1 25 -80 0 -73 2 -80 20 -80 18 0 20 7 20 80 l0 80 30 0 c20 0 30 5 30 15 0 12 -15 15 -75 15 -60 0 -75 -3 -75 -15z"/> <path d="M280 335 c0 -76 3 -95 14 -95 10 0 16 14 18 43 3 42 3 42 46 45 l42 3 0 -45 c0 -39 3 -46 20 -46 19 0 20 7 20 95 0 88 -1 95 -20 95 -16 0 -20 -7 -20 -35 0 -35 0 -35 -45 -35 -45 0 -45 0 -45 35 0 24 -5 35 -15 35 -12 0 -15 -17 -15 -95z"/> <path d="M490 335 c0 -88 1 -95 20 -95 16 0 20 7 20 35 0 46 23 46 52 0 15 -23 31 -35 46 -35 l23 0 -25 36 c-24 35 -24 36 -5 55 10 10 19 30 19 42 0 39 -30 57 -93 57 l-57 0 0 -95z m105 35 c0 -21 -5 -26 -32 -28 -31 -3 -33 -1 -33 28 0 29 2 31 33 28 27 -2 32 -7 32 -28z"/> <path d="M680 415 c0 -12 14 -15 70 -15 56 0 70 3 70 15 0 12 -14 15 -70 15 -56 0 -70 -3 -70 -15z"/> <path d="M881 348 c-18 -46 -36 -89 -38 -95 -10 -25 34 -13 45 12 9 20 19 25 47 25 28 0 38 -5 47 -25 6 -14 19 -25 30 -25 10 0 18 2 18 5 0 3 -16 45 -36 95 -30 74 -40 90 -58 90 -17 0 -27 -15 -55 -82z m74 -10 c6 -25 5 -28 -19 -28 -29 0 -31 6 -16 46 12 31 25 24 35 -18z"/> <path d="M1020 415 c0 -9 9 -15 25 -15 25 0 25 -1 25 -80 0 -73 2 -80 20 -80 18 0 20 7 20 80 l0 80 30 0 c20 0 30 5 30 15 0 12 -15 15 -75 15 -60 0 -75 -3 -75 -15z"/> <path d="M1210 335 l0 -95 65 0 c58 0 65 2 65 20 0 17 -7 20 -45 20 l-45 0 0 75 c0 68 -2 75 -20 75 -19 0 -20 -7 -20 -95z"/> <path d="M1387 408 c-38 -38 -38 -104 -1 -139 38 -36 107 -34 140 4 34 40 33 99 -3 135 -33 33 -42 16 -18 -35 16 -33 16 -40 4 -63 -12 -20 -22 -25 -54 -25 -33 0 -42 4 -53 27 -11 24 -11 33 3 63 24 49 15 66 -18 33z"/> <path d="M1790 335 c0 -88 1 -95 20 -95 17 0 20 7 20 48 l1 47 42 -47 c28 -31 51 -48 66 -48 21 0 18 5 -23 52 l-46 52 42 43 c40 41 41 43 18 43 -17 0 -37 -14 -62 -42 l-37 -43 -1 43 c0 35 -3 42 -20 42 -19 0 -20 -7 -20 -95z"/> <path d="M1990 335 l0 -96 67 3 c55 2 68 6 71 21 3 14 -5 17 -53 17 -53 0 -56 1 -53 23 2 18 10 23 46 25 28 2 42 8 42 18 0 10 -12 14 -45 14 -38 0 -45 3 -45 20 0 17 7 20 50 20 38 0 50 4 50 15 0 12 -14 15 -65 15 l-65 0 0 -95z"/> <path d="M2162 338 c3 -79 6 -93 21 -96 14 -3 17 4 17 32 0 49 30 49 60 1 13 -20 30 -35 41 -35 24 0 24 5 -1 41 l-21 28 23 31 c21 29 21 33 7 58 -13 25 -21 27 -82 30 l-68 3 3 -93z m112 47 c10 -28 -5 -45 -40 -45 -31 0 -34 3 -34 30 0 27 3 30 34 30 21 0 36 -6 40 -15z"/> <path d="M680 300 l0 -60 70 0 c63 0 70 2 70 20 0 17 -7 20 -50 20 -47 0 -50 2 -50 25 0 23 4 25 45 25 33 0 45 4 45 15 0 12 -14 15 -65 15 l-65 0 0 -60z"/> </g> </svg> 